<svg id="Capa_1" enable-background="new 0 0 512 512" height="512" viewBox="0 0 512 512" width="512" xmlns="http://www.w3.org/2000/svg"><g><path d="m486.051 256.924h-24.283v-55.084h3.562c8.365 0 15.65-5.067 18.56-12.909s.694-16.435-5.646-21.892l-79.332-68.283c-10.146-8.734-24.875-8.733-35.021 0l-27.422 23.604c-3.146 2.707-3.501 7.452-.794 10.597 2.707 3.146 7.452 3.501 10.598.793l27.422-23.603c4.466-3.843 10.947-3.844 15.412 0l79.332 68.283c3.383 2.905 1.358 8.383-3.11 8.381h-11.077c-4.15 0-7.515 3.365-7.515 7.515v62.598h-35.14v-26.924c0-16.651-13.546-30.197-30.197-30.197s-30.197 13.547-30.197 30.197v26.924h-35.139v-62.598c0-4.15-3.364-7.515-7.515-7.515h-11.077c-4.751-.415-6.445-4.963-3.111-8.381l29.115-25.06c3.146-2.707 3.501-7.453.793-10.598-2.707-3.146-7.452-3.501-10.597-.793l-29.115 25.06c-6.34 5.457-8.556 14.05-5.646 21.892s10.196 12.909 18.561 12.909h3.562v55.083h-79.126c.085-.691.143-1.391.143-2.105v-72.321l.098-.095c2.929-2.837 4.609-6.803 4.609-10.882v-33.434c0-9.448-7.686-17.134-17.135-17.134h-44.278v-8.989c0-10.773-8.764-19.536-19.536-19.536h-35.626c-10.772 0-19.536 8.764-19.536 19.536v8.989h-44.273c-9.448 0-17.135 7.686-17.135 17.134v33.434c0 4.078 1.68 8.045 4.609 10.882l.098.095v72.321c0 .714.058 1.414.143 2.105h-8.141c-14.308.001-25.948 11.641-25.948 25.95 0 14.308 11.64 25.949 25.949 25.949h210.666l-55.614 83.737c-3.581 5.392-3.905 12.285-.846 17.988 3.059 5.704 8.98 9.247 15.452 9.247h120.786c6.472 0 12.393-3.543 15.452-9.247 3.059-5.703 2.735-12.596-.846-17.988l-55.614-83.737h113.671c4.15 0 7.515-3.365 7.515-7.515s-3.365-7.515-7.515-7.515h-363.107c-6.021 0-10.919-4.898-10.919-10.919s4.898-10.92 10.919-10.92h82.719c4.15 0 7.515-3.365 7.515-7.515s-3.365-7.515-7.515-7.515h-57.587c-1.161 0-2.106-.944-2.106-2.105v-57.762l.945.916c2.841 2.752 6.585 4.269 10.541 4.269h42.773v7.47c0 13.656 11.11 24.765 24.765 24.765s24.765-11.11 24.765-24.765v-7.47h42.773c3.956 0 7.7-1.516 10.541-4.269l.945-.916v57.762c0 1.161-.944 2.105-2.105 2.105h-66.193c-4.15 0-7.515 3.365-7.515 7.515s3.364 7.515 7.515 7.515h347.325c6.021 0 10.919 4.899 10.919 10.92s-4.898 10.919-10.919 10.919h-66.937c-4.15 0-7.515 3.365-7.515 7.515s3.365 7.515 7.515 7.515h66.937c14.308 0 25.949-11.64 25.949-25.949.001-14.309-11.639-25.949-25.948-25.949zm-227.964 53.017 60.393 90.933c1.104 1.721-.039 3.857-2.087 3.891h-120.786c-2.045-.033-3.191-2.167-2.087-3.891l60.393-90.933c1.083-1.519 3.09-1.521 4.174 0zm-152.406-197.977c0-2.485 2.021-4.507 4.506-4.507h35.626c2.485 0 4.506 2.021 4.506 4.507v8.989h-44.639v-8.989zm32.055 97.747c0 5.368-4.367 9.736-9.735 9.736s-9.736-4.367-9.736-9.736v-7.47h19.471zm57.887-22.533c-.023.022-.053.034-.084.034l-135.161-.034-16.11-15.657v-33.434c0-1.161.945-2.105 2.106-2.105h163.253c1.161 0 2.105.944 2.105 2.105l-.037 33.521zm170.612 42.822c0-8.363 6.804-15.168 15.167-15.168 8.364 0 15.167 6.804 15.167 15.168v26.924h-30.335v-26.924z"/></g></svg>