<svg id="OutlineExpand" enable-background="new 0 0 64 64" height="512" viewBox="0 0 64 64" width="512" xmlns="http://www.w3.org/2000/svg"><path d="m61 2h-30c-.552 0-1 .447-1 1v16.297l-3.043-3.551c-.951-1.109-2.335-1.746-3.797-1.746h-3.715c.761-.847 1.281-1.882 1.471-3h1.084c.347 0 .668-.18.851-.475s.199-.663.044-.973l-1.895-3.788v-.764c0-1.654-1.346-3-3-3h-6c-1.654 0-3 1.346-3 3v4.785c0 1.609.61 3.097 1.604 4.215h-1.604c-2.757 0-5 2.243-5 5v9c0 1.13.391 2.162 1.026 3h-2.026c-.552 0-1 .447-1 1v4c0 .553.448 1 1 1h1v4h2v-4h30v2h2v-2h23c.552 0 1-.447 1-1v-33c0-.553-.448-1-1-1zm-50 3c0-.552.449-1 1-1h6c.551 0 1 .448 1 1v1c0 .155.036.309.105.447l1.277 2.553h-.382c-.552 0-1 .447-1 1 0 1.125-.478 2.203-1.31 2.961-.844.768-1.946 1.129-3.086 1.021-2.021-.194-3.604-2.037-3.604-4.197zm5.382 11-1.382 2.764-1.382-2.764zm-10.382 12v-9c0-1.654 1.346-3 3-3h2.382l2.724 5.447c.169.339.515.553.894.553s.725-.214.895-.553l2.723-5.447h4.542c.877 0 1.708.382 2.278 1.047l4.803 5.604c.181.212.442.338.721.349.28.019.548-.096.746-.292l5.292-5.294 2.586 2.586-6.464 6.465c-1.17 1.168-3.073 1.168-4.243 0l-3.171-3.172c-.287-.287-.716-.374-1.09-.217-.374.154-.618.52-.618.924v7h-5v-3c0-1.654-1.346-3-3-3h-4v-2h-2v3c0 .553.448 1 1 1h5c.551 0 1 .448 1 1v3h-8c-1.654 0-3-1.346-3-3zm20 3v-4.586l1.464 1.465c.72.719 1.606 1.169 2.536 1.357v1.764zm12 4h-34v-2h34zm22 0h-20v-3c0-.553-.448-1-1-1h-7v-1.764c.93-.188 1.816-.638 2.536-1.357l7.171-7.172c.391-.391.391-1.023 0-1.414l-2.293-2.293 5.293-5.293-1.414-1.414-5.293 5.293-.293-.293c-.391-.391-1.023-.391-1.414 0l-4.293 4.293v-15.586h28z"/><path d="m44 8.118 5.553 2.776c.14.071.294.106.447.106s.307-.035.447-.105l6-3-.895-1.789-5.552 2.776-5.553-2.776c-.281-.141-.613-.141-.895 0l-6 3 .895 1.789z"/><path d="m45 17h12v2h-12z"/><path d="m45 21h12v2h-12z"/><path d="m45 25h12v2h-12z"/><path d="m45 29h12v2h-12z"/><path d="m5 55v6c0 .553.448 1 1 1h10c.552 0 1-.447 1-1v-6c0-2.168-1.159-4.065-2.887-5.119 1.141-.917 1.887-2.307 1.887-3.881 0-2.757-2.243-5-5-5s-5 2.243-5 5c0 1.574.746 2.964 1.887 3.881-1.728 1.054-2.887 2.951-2.887 5.119zm3-9c0-1.654 1.346-3 3-3s3 1.346 3 3-1.346 3-3 3-3-1.346-3-3zm-1 9c0-2.206 1.794-4 4-4s4 1.794 4 4v5h-8z"/><path d="m19 55v6c0 .553.448 1 1 1h10c.552 0 1-.447 1-1v-6c0-2.168-1.159-4.065-2.887-5.119 1.141-.917 1.887-2.307 1.887-3.881 0-2.757-2.243-5-5-5s-5 2.243-5 5c0 1.574.746 2.964 1.887 3.881-1.728 1.054-2.887 2.951-2.887 5.119zm3-9c0-1.654 1.346-3 3-3s3 1.346 3 3-1.346 3-3 3-3-1.346-3-3zm-1 9c0-2.206 1.794-4 4-4s4 1.794 4 4v5h-8z"/><path d="m33 55v6c0 .553.448 1 1 1h10c.552 0 1-.447 1-1v-6c0-2.168-1.159-4.065-2.887-5.119 1.141-.917 1.887-2.307 1.887-3.881 0-2.757-2.243-5-5-5s-5 2.243-5 5c0 1.574.746 2.964 1.887 3.881-1.728 1.054-2.887 2.951-2.887 5.119zm3-9c0-1.654 1.346-3 3-3s3 1.346 3 3-1.346 3-3 3-3-1.346-3-3zm-1 9c0-2.206 1.794-4 4-4s4 1.794 4 4v5h-8z"/><path d="m47 55v6c0 .553.448 1 1 1h10c.552 0 1-.447 1-1v-6c0-2.168-1.159-4.065-2.887-5.119 1.141-.917 1.887-2.307 1.887-3.881 0-2.757-2.243-5-5-5s-5 2.243-5 5c0 1.574.746 2.964 1.887 3.881-1.728 1.054-2.887 2.951-2.887 5.119zm3-9c0-1.654 1.346-3 3-3s3 1.346 3 3-1.346 3-3 3-3-1.346-3-3zm-1 9c0-2.206 1.794-4 4-4s4 1.794 4 4v5h-8z"/></svg>